# AST/ASF file generated using VICON BodyLanguage
# -----------------------------------------------
:version 1.10
:name VICON
:units
  mass 1.0
  length 0.45
  angle deg
:documentation
   .ast/.asf automatically generated from VICON data using
   VICON BodyBuilder and BodyLanguage model FoxedUp or BRILLIANT.MOD
:root
   order TX TY TZ RX RY RZ
   axis XYZ
   position 0 0 0  
   orientation 0 0 0 
:bonedata
  begin
     id 1 
     name lhipjoint
     direction 0.612567 -0.751349 0.245431 
     length 2.42285 
     axis 0 0 0  XYZ
  end
  begin
     id 2 
     name lfemur
     direction 0.34202 -0.939693 0  
     length 7.11304  
     axis 0 0 20  XYZ
    dof rx ry rz
    limits (-160.0 20.0)
           (-70.0 70.0)
           (-60.0 70.0)
  end
  begin
     id 3 
     name ltibia
     direction 0.34202 -0.939693 0   
     length 7.84529   
     axis 0 0 20   XYZ
    dof rx
    limits (-10.0 170.0)
  end
  begin
     id 4 
     name lfoot
     direction 0.0779239 -0.214094 0.9737   
     length 1.97176   
     axis -90 7.62852e-016 20   XYZ
    dof rx rz
    limits (-45.0 90.0)
           (-70.0 20.0)
  end
  begin
     id 5 
     name ltoes
     direction 1.53565e-011 -4.21709e-011 1   
     length 0.993197   
     axis -90 7.62852e-016 20   XYZ
    dof rx
    limits (-90.0 20.0)
  end
  begin
     id 6 
     name rhipjoint
     direction -0.665722 -0.709315 0.231701   
     length 2.56642  
     axis 0 0 0  XYZ 
  end
  begin
     id 7 
     name rfemur
     direction -0.34202 -0.939693 0   
     length 7.32108   
     axis 0 0 -20   XYZ
    dof rx ry rz
    limits (-160.0 20.0)
           (-70.0 70.0)
           (-70.0 60.0)
  end
  begin
     id 8 
     name rtibia
     direction -0.34202 -0.939693 0   
     length 7.81254   
     axis 0 0 -20   XYZ
    dof rx
    limits (-10.0 170.0)
 end
 begin
     id 9 
     name rfoot
     direction -0.0832806 -0.228812 0.969902   
     length 2.08278  
     axis -90 -7.62852e-016 -20   XYZ
    dof rx rz
    limits (-45.0 90.0)
           (-20.0 70.0)
  end
  begin
     id 10 
     name rtoes
     direction -1.53589e-011 -4.22086e-011 1   
     length 1.04609   
     axis -90 -7.62852e-016 -20   XYZ
    dof rx
    limits (-90.0 20.0)
  end
  begin
     id 11 
     name lowerback
     direction -0.00506013 0.988403 -0.151766   
     length 2.01978   
     axis 0 0 0   XYZ
    dof rx ry rz
    limits (-20.0 45.0)
           (-30.0 30.0)
           (-30.0 30.0)
  end
  begin
     id 12 
     name upperback
     direction -0.00836389 0.99968 0.0238859   
     length 2.01276   
     axis 0 0 0   XYZ
    dof rx ry rz
    limits (-20.0 45.0)
           (-30.0 30.0)
           (-30.0 30.0)
  end
  begin
     id 13 
     name thorax
     direction -0.00684136 0.995386 0.0957043   
     length 2.07303   
     axis 0 0 0   XYZ
    dof rx ry rz
    limits (-20.0 45.0)
           (-30.0 30.0)
           (-30.0 30.0)
  end
  begin
     id 14 
     name lowerneck
     direction -0.0161045 0.999661 0.0204485   
     length 1.91243   
     axis 0 0 0   XYZ
    dof rx ry rz
    limits (-20.0 45.0)
           (-30.0 30.0)
           (-30.0 30.0)
  end
  begin
     id 15 
     name upperneck
     direction 0.0553583 0.990946 -0.122319   
     length 1.91574   
     axis 0 0 0   XYZ
    dof rx ry rz
    limits (-20.0 45.0)
           (-30.0 30.0)
           (-30.0 30.0)
  end
  begin
     id 16
     name head
     direction 0.0180273 0.998839 -0.0446756  
     length 1.92693  
     axis 0 0 0   XYZ
    dof rx ry rz
    limits (-20.0 45.0)
           (-30.0 30.0)
           (-30.0 30.0)
  end
  begin
     id 17 
     name lclavicle
     direction 0.945646 0.319323 -0.0615358  
     length 4.0076  
     axis 0 0 0   XYZ
    dof ry rz
    limits (-20.0 10.0)
           (0.0 20.0)
  end
  begin
     id 18 
     name lhumerus
     direction 1 -4.48967e-011 -2.79996e-027   
     length 5.64147   
     axis 180 -30 -90   XYZ
    dof rx ry rz
    limits (-60.0 90.0)
           (-90.0 90.0)
           (-90.0 90.0)
  end
  begin
     id 19
     name lradius
     direction 1 -4.48976e-011 -9.5122e-027   
     length 2.86444   
     axis 180 -30 -90   XYZ
    dof rx
    limits (-10.0 170.0)
  end
  begin
     id 20
     name lwrist
     direction 1 -4.48983e-011 -1.24047e-026   
     length 1.43222   
     axis 9.05591e-015 90 90   XYZ
    dof ry
    limits (-180.0 0.0)
 end
  begin
     id 21 
     name lhand
     direction 1 -4.4892e-011 -2.48094e-026   
     length 0.722123   
     axis 1.58305e-014 90 90   XYZ
    dof rx rz
    limits (-90.0 90.0)
           (-45.0 45.0)
  end
  begin
     id 22 
     name lfingers
     direction 1 -4.48895e-011 -4.96187e-026   
     length 0.582194   
     axis 3.1661e-014 90 90   XYZ
    dof rx
    limits (0.0 90.0)
  end
  begin
     id 23
     name lthumb
     direction 0.707107 -6.34961e-011 0.707107   
     length 0.835918   
     axis -90 45 2.85299e-015   XYZ
    dof rx rz
    limits (-45.0 45.0)
           (-45.0 45.0)
  end
  begin
     id 24 
     name rclavicle
     direction -0.932635 0.324218 -0.15835   
     length 3.65819  
     axis 0 0 0   XYZ 
    dof ry rz
    limits (-10.0 20.0)
           (-20.0 0.0)
  end
  begin
     id 25 
     name rhumerus
     direction -1 -4.48965e-011 -4.02296e-027  
     length 5.44729   
     axis 180 30 90   XYZ
    dof rx ry rz
    limits (-90.0 60.0)
           (-90.0 90.0)
           (-90.0 90.0)
  end
  begin
     id 26 
     name rradius
     direction -1 -4.48957e-011 -8.81087e-027   
     length 3.08821   
     axis 180 30 90   XYZ
    dof rx
    limits (-10.0 170.0)
  end
  begin
     id 27 
     name rwrist
     direction -1 -4.49015e-011 -1.24047e-026   
     length 1.5441   
     axis 9.05591e-015 -90 -90   XYZ
    dof ry
    limits (-180.0 0.0)
  end
  begin
     id 28
     name rhand
     direction -1 -4.4891e-011 -2.48094e-026   
     length 0.821049   
     axis 1.58305e-014 -90 -90   XYZ
    dof rx rz
    limits (-90.0 90.0)
           (-45.0 45.0)
  end
  begin
     id 29
     name rfingers
     direction -1 -4.48985e-011 -4.96187e-026   
     length 0.661951   
     axis 3.1661e-014 -90 -90   XYZ
    dof rx
    limits (0.0 90.0)
  end
  begin
     id 30
     name rthumb
     direction -0.707107 -6.34906e-011 0.707107   
     length 0.950433   
     axis -90 -45 -2.85299e-015   XYZ
    dof rx rz
    limits (-45.0 45.0)
           (-45.0 45.0)
  end
:hierarchy
  begin
    root lhipjoint rhipjoint lowerback
    lhipjoint lfemur
    lfemur ltibia
    ltibia lfoot
    lfoot ltoes
    rhipjoint rfemur
    rfemur rtibia
    rtibia rfoot
    rfoot rtoes
    lowerback upperback
    upperback thorax
    thorax lowerneck lclavicle rclavicle
    lowerneck upperneck
    upperneck head
    lclavicle lhumerus
    lhumerus lradius
    lradius lwrist
    lwrist lhand lthumb
    lhand lfingers
    rclavicle rhumerus
    rhumerus rradius
    rradius rwrist
    rwrist rhand rthumb
    rhand rfingers
  end

#!OML:ASF F:\VICON\USERDATA\INSTALL\rory3\rory3.ASF
:FULLY-SPECIFIED
:DEGREES
2085
root 3.64794 17.5925 -0.218782 350.782 105.059 353.873
lowerback -4.70176 0.299562 7.27701
upperback -7.23465 0.924284 4.46445
thorax -4.91119 0.418239 0.574379
lowerneck -5.91709 4.69795 1.39643
upperneck 10.008 5.40009 9.43178
head 3.73357 3.27319 2.91348
rclavicle 5.56597e-014 -2.06736e-014
rhumerus -58.8916 -0.825496 -83.6391
rradius 94.2712
rwrist -2.31546
rhand -19.9094 29.7728
rfingers 7.12502
rthumb 6.42727 -0.109684
lclavicle 5.56597e-014 -2.06736e-014
lhumerus 3.31301 -20.5751 61.0218
lradius 125.215
lwrist 59.0036
lhand -4.84423 -3.56765
lfingers 7.12502
lthumb 20.9431 25.3217
rfemur 8.3127 -1.21445 17.3696
rtibia 14.0142
rfoot -28.6876 -16.3064
rtoes -1.63251
lfemur -0.399933 -0.883753 -18.957
ltibia 14.3126
lfoot -6.78232 -14.3299
ltoes 8.81329
2086
root 3.64352 17.5968 -0.216549 350.835 105.102 353.897
lowerback -4.66337 0.373394 7.43411
upperback -7.23203 1.03152 4.51561
thorax -4.92769 0.466907 0.541322
lowerneck -5.93879 4.75958 1.40156
upperneck 10.0574 5.48337 9.35684
head 3.7509 3.31187 2.89532
rclavicle 7.95139e-016 -4.29375e-014
rhumerus -58.6058 -1.30481 -83.2441
rradius 94.6695
rwrist -1.99767
rhand -19.4831 29.2098
rfingers 7.12502
rthumb 6.8388 -0.659763
lclavicle 7.95139e-016 -4.29375e-014
lhumerus 2.27933 -21.4357 61.9208
lradius 125.432
lwrist 58.8987
lhand -4.38845 -3.46279
lfingers 7.12502
lthumb 21.3809 25.3776
rfemur 8.31126 -1.13732 17.3927
rtibia 13.9302
rfoot -28.728 -16.3324
rtoes -1.41885
lfemur -0.484395 -0.900358 -18.9461
ltibia 14.362
lfoot -6.75428 -14.3743
ltoes 8.91757
2087
root 3.63812 17.5967 -0.213157 351.171 105.143 354.233
lowerback -4.58182 0.436177 7.64707
upperback -7.19534 1.12413 4.5778
thorax -4.93276 0.505855 0.48831
lowerneck -6.18542 4.81396 1.34062
upperneck 10.1917 5.53822 9.38181
head 3.82795 3.34692 2.92627
rclavicle 3.97569e-015 2.70347e-014
rhumerus -58.0785 -1.82115 -82.9456
rradius 95.0348
rwrist -2.05957
rhand -19.3364 29.7334
rfingers 7.12502
rthumb 6.98046 -0.13148
lclavicle 3.97569e-015 2.70347e-014
lhumerus 0.998275 -22.3815 62.995
lradius 125.654
lwrist 58.7615
lhand -4.30187 -3.16607
lfingers 7.12502
lthumb 21.4641 25.6648
rfemur 8.33424 -1.13079 17.5094
rtibia 13.8338
rfoot -28.7153 -16.428
rtoes -1.28133
lfemur -0.585844 -0.940326 -18.8421
ltibia 14.464
lfoot -6.76922 -14.4167
ltoes 8.86631
2088
root 3.63473 17.5948 -0.210528 351.871 105.217 354.976
lowerback -4.56405 0.457236 7.93921
upperback -7.14326 1.15615 4.68136
thorax -4.88928 0.514881 0.435337
lowerneck -6.27925 4.8921 1.32919
upperneck 10.2142 5.64061 9.3338
head 3.84713 3.39568 2.92152
rclavicle 1.66979e-014 1.43125e-014
rhumerus -57.4301 -2.18562 -82.7134
rradius 95.3567
rwrist -2.33526
rhand -19.3068 30.241
rfingers 7.12502
rthumb 7.00898 0.377019
lclavicle 1.66979e-014 1.43125e-014
lhumerus -0.598039 -23.2623 64.3841
lradius 125.824
lwrist 58.58
lhand -4.24584 -2.86472
lfingers 7.12502
lthumb 21.5179 25.96
rfemur 8.42232 -1.26293 17.7093
rtibia 13.7103
rfoot -28.6709 -16.4598
rtoes -1.37208
lfemur -0.689836 -0.937667 -18.6226
ltibia 14.6396
lfoot -6.75749 -14.5809
ltoes 8.88413
2089
root 3.63088 17.5927 -0.205172 352.269 105.345 355.427
lowerback -4.52915 0.446201 8.075
upperback -7.12905 1.15164 4.76524
thorax -4.89704 0.510838 0.447828
lowerneck -6.21139 4.99257 1.47356
upperneck 10.2187 5.77494 9.20503
head 3.84019 3.45854 2.86331
rclavicle -1.43125e-014 4.6118e-014
rhumerus -56.8578 -2.35303 -82.5536
rradius 95.8116
rwrist -2.68458
rhand -19.1517 30.2544
rfingers 7.12502
rthumb 7.15876 0.395494
lclavicle -1.43125e-014 4.6118e-014
lhumerus -2.57071 -24.1484 66.1917
lradius 125.85
lwrist 58.2186
lhand -3.9519 -2.66012
lfingers 7.12502
lthumb 21.8001 26.1321
rfemur 8.57616 -1.38155 17.8334
rtibia 13.514
rfoot -28.6019 -16.5155
rtoes -1.41907
lfemur -0.852697 -0.944205 -18.4852
ltibia 14.9467
lfoot -6.78634 -14.7675
ltoes 9.22645
2090
root 3.62518 17.591 -0.193903 352.857 105.44 356.105
lowerback -4.38842 0.44617 8.20808
upperback -7.13967 1.17941 4.86579
thorax -4.99049 0.52125 0.478495
lowerneck -6.09208 5.07643 1.59739
upperneck 10.1836 5.89133 9.11798
head 3.81169 3.51211 2.81753
rclavicle 7.95139e-015 8.42847e-014
rhumerus -56.1995 -2.45907 -82.4671
rradius 96.2917
rwrist -2.96735
rhand -19.1273 30.2974
rfingers 7.12502
rthumb 7.18222 0.439281
lclavicle 7.95139e-015 8.42847e-014
lhumerus -4.95655 -25.1023 68.3061
lradius 125.619
lwrist 57.73
lhand -3.5402 -2.80927
lfingers 7.12502
lthumb 22.1954 25.9364
rfemur 8.72062 -1.30095 18.1019
rtibia 13.3241
rfoot -28.6531 -16.6891
rtoes -0.921467
lfemur -1.0145 -0.974015 -18.2598
ltibia 15.274
lfoot -6.85811 -14.9074
ltoes 9.43976
2091
root 3.6174 17.5863 -0.185453 353.826 105.505 357.237
lowerback -4.19293 0.473574 8.49434
upperback -7.11464 1.24747 4.98347
thorax -5.07568 0.54524 0.442237
lowerneck -6.04306 5.14155 1.67684
upperneck 10.1249 5.97759 9.12158
head 3.78493 3.55484 2.80667
rclavicle 2.14687e-014 3.33958e-014
rhumerus -55.2904 -2.59015 -82.3481
rradius 96.7812
rwrist -3.17769
rhand -18.9914 30.2109
rfingers 7.12502
rthumb 7.31349 0.357313
lclavicle 2.14687e-014 3.33958e-014
lhumerus -7.66523 -25.9938 70.6839
lradius 125.198
lwrist 57.1989
lhand -3.07862 -3.16458
lfingers 7.12502
lthumb 22.6385 25.5277
rfemur 8.88219 -1.29527 18.4897
rtibia 13.1907
rfoot -28.607 -16.8573
rtoes -0.905962
lfemur -1.09232 -1.03212 -17.9078
ltibia 15.5533
lfoot -6.96939 -14.9946
ltoes 9.38377
2092
root 3.61017 17.5814 -0.181837 354.063 105.625 357.58
lowerback -4.07853 0.496755 8.59498
upperback -7.06829 1.29091 5.03815
thorax -5.09034 0.56412 0.442553
lowerneck -6.04615 5.20377 1.78993
upperneck 9.73506 6.10096 8.8393
head 4.06991 3.57364 3.00804
rclavicle 5.56597e-015 -9.54166e-015
rhumerus -54.2447 -2.74082 -82.2176
rradius 97.3773
rwrist -3.27623
rhand -18.792 30.1388
rfingers 7.12502
rthumb 7.50591 0.291954
lclavicle 5.56597e-015 -9.54166e-015
lhumerus -10.4113 -26.6602 73.3036
lradius 124.756
lwrist 56.7324
lhand -2.62225 -3.3377
lfingers 7.12502
lthumb 23.0765 25.3005
rfemur 9.03352 -1.47825 18.5693
rtibia 13.0756
rfoot -28.4985 -16.8727
rtoes -1.26699
lfemur -1.16684 -1.18733 -17.8179
ltibia 15.8143
lfoot -7.16337 -15.0307
ltoes 8.97886
2093
root 3.60466 17.5776 -0.178844 354.102 105.754 357.754
lowerback -4.01684 0.478118 8.63869
upperback -7.00067 1.26839 5.09333
thorax -5.05545 0.554207 0.475173
lowerneck -5.86058 5.31592 1.99879
upperneck 9.58513 6.26204 8.68397
head 3.98336 3.64417 2.90852
rclavicle 6.75868e-014 -1.74931e-014
rhumerus -53.1701 -2.77304 -82.1534
rradius 98.0949
rwrist -3.26114
rhand -18.7275 30.341
rfingers 7.12502
rthumb 7.56817 0.496451
lclavicle 6.75868e-014 -1.74931e-014
lhumerus -13.2517 -27.0528 76.1112
lradius 124.275
lwrist 56.2646
lhand -2.33218 -3.27427
lfingers 7.12502
lthumb 23.3548 25.3289
rfemur 9.22477 -1.64023 18.5901
rtibia 12.9627
rfoot -28.4159 -16.8346
rtoes -1.20627
lfemur -1.19877 -1.26761 -17.7777
ltibia 16.0647
lfoot -7.36883 -15.1299
ltoes 8.58891
2094
root 3.60113 17.5735 -0.172937 354.255 105.869 358.101
lowerback -3.97063 0.41334 8.67067
upperback -6.92287 1.18656 5.20876
thorax -5.00586 0.519063 0.577537
lowerneck -5.5117 5.46735 2.14471
upperneck 9.369 6.49343 8.54192
head 3.83661 3.74257 2.81692
rclavicle 2.14687e-014 -3.18055e-015
rhumerus -51.9452 -2.5622 -82.1337
rradius 98.8993
rwrist -3.29053
rhand -18.7275 30.3692
rfingers 7.12502
rthumb 7.5682 0.524622
lclavicle 2.14687e-014 -3.18055e-015
lhumerus -16.2803 -27.2029 78.9268
lradius 123.665
lwrist 55.9147
lhand -2.22927 -3.06136
lfingers 7.12502
lthumb 23.4535 25.5292
rfemur 9.41381 -1.74957 18.6923
rtibia 12.9699
rfoot -28.3839 -16.8544
rtoes -1.50016
lfemur -1.10594 -1.411 -17.6727
ltibia 16.1969
lfoot -7.49046 -15.1699
ltoes 8.67768
2095
root 3.59999 17.568 -0.169284 354.227 106.013 358.291
lowerback -3.88491 0.32048 8.67597
upperback -6.83657 1.06863 5.30755
thorax -4.97047 0.4654 0.67685
lowerneck -5.25009 5.61934 2.21699
upperneck 9.16381 6.72231 8.44952
head 3.70865 3.84112 2.75978
rclavicle -5.56597e-015 8.42847e-014
rhumerus -50.5011 -2.22677 -82.1274
rradius 99.7311
rwrist -3.41949
rhand -18.6486 30.3185
rfingers 7.12502
rthumb 7.64435 0.476664
lclavicle -5.56597e-015 8.42847e-014
lhumerus -19.3831 -27.2566 81.6128
lradius 122.881
lwrist 55.5324
lhand -2.6256 -3.07722
lfingers 7.12502
lthumb 23.0732 25.5614
rfemur 9.64626 -1.84608 18.7394
rtibia 13.0037
rfoot -28.3883 -16.8616
rtoes -1.505
lfemur -0.934517 -1.55521 -17.6271
ltibia 16.2813
lfoot -7.66255 -15.192
ltoes 8.12401
